<svg width="223" height="120" viewBox="0 0 223 120" fill="none" xmlns="http://www.w3.org/2000/svg">
<rect width="22.3425" height="119.586" rx="11.1712" fill="#51E5FF"/>
<path d="M14.895 6.48976C14.895 8.66384 13.1326 10.4263 10.9585 10.4263C8.78442 10.4263 7.02197 8.66384 7.02197 6.48976C7.02197 4.31567 8.78442 2.55322 10.9585 2.55322C13.1326 2.55322 14.895 4.31567 14.895 6.48976Z" fill="#FFD796"/>
<path d="M15.3206 112.776C15.3206 114.892 13.5581 116.607 11.384 116.607C9.20996 116.607 7.44751 114.892 7.44751 112.776C7.44751 110.661 9.20996 108.946 11.384 108.946C13.5581 108.946 15.3206 110.661 15.3206 112.776Z" fill="#FFD796"/>
<rect x="22.3425" width="22.5553" height="112.138" rx="11.2776" fill="#8D3CD9"/>
<path d="M22.3425 5.74521C22.3425 2.57222 24.9147 0 28.0877 0V112.138C24.9147 112.138 22.3425 109.566 22.3425 106.393V5.74521Z" fill="#63269C"/>
<rect x="44.8977" width="22.5553" height="104.691" rx="11.2776" fill="#EC368D"/>
<rect x="65.9634" width="22.3425" height="97.243" rx="11.1712" fill="#FFA4A4"/>
<rect x="88.3062" width="22.3425" height="89.7955" rx="11.1712" fill="#94D675"/>
<rect x="110.648" width="22.5553" height="82.348" rx="11.2776" fill="#FF8C42"/>
<rect x="133.204" width="22.3425" height="74.9005" rx="11.1712" fill="#FB3939"/>
<rect x="155.121" width="22.5553" height="67.453" rx="11.2776" fill="#51E5FF"/>
<rect x="177.676" width="22.5553" height="59.7928" rx="11.2776" fill="#8D3CD9"/>
<path d="M44.8977 5.53243C44.8977 2.47695 47.3747 0 50.4301 0V104.691C47.3747 104.691 44.8977 102.214 44.8977 99.1581V5.53243Z" fill="#CC2675"/>
<path d="M65.9634 5.53243C65.9634 2.47695 68.4403 0 71.4958 0V97.243C68.4403 97.243 65.9634 94.7661 65.9634 91.7106V5.53243Z" fill="#FF8A8A"/>
<path d="M88.3062 5.53243C88.3062 2.47696 90.7831 0 93.8386 0V89.7955C90.7831 89.7955 88.3062 87.3186 88.3062 84.2631V5.53243Z" fill="#7EBE5F"/>
<path d="M110.648 5.7452C110.648 2.57221 113.221 0 116.394 0V82.348C113.221 82.348 110.648 79.7758 110.648 76.6028V5.7452Z" fill="#EC7224"/>
<path d="M133.204 5.53242C133.204 2.47694 135.681 0 138.736 0V74.9005C135.681 74.9005 133.204 72.4236 133.204 69.3681V5.53242Z" fill="#ED0303"/>
<path d="M155.121 5.7452C155.121 2.57221 157.693 0 160.866 0V67.453C157.693 67.453 155.121 64.8808 155.121 61.7078V5.7452Z" fill="#1EB6D1"/>
<path d="M177.676 5.74521C177.676 2.57222 180.248 0 183.421 0V59.7928C180.248 59.7928 177.676 57.2205 177.676 54.0475V5.74521Z" fill="#63269C"/>
<rect x="200.231" width="22.3425" height="52.3453" rx="11.1712" fill="#EC368D"/>
<path d="M200.231 5.53243C200.231 2.47696 202.708 0 205.764 0V52.3453C202.708 52.3453 200.231 49.8683 200.231 46.8128V5.53243Z" fill="#CC2675"/>
<path d="M60.2183 5.85157C60.2183 8.02566 58.4558 9.78811 56.2817 9.78811C54.1077 9.78811 52.3452 8.02566 52.3452 5.85157C52.3452 3.67749 54.1077 1.91504 56.2817 1.91504C58.4558 1.91504 60.2183 3.67749 60.2183 5.85157Z" fill="#FFD796"/>
<path d="M81.2842 5.85157C81.2842 8.02566 79.5218 9.78811 77.3477 9.78811C75.1736 9.78811 73.4111 8.02566 73.4111 5.85157C73.4111 3.67749 75.1736 1.91504 77.3477 1.91504C79.5218 1.91504 81.2842 3.67749 81.2842 5.85157Z" fill="#FFD796"/>
<path d="M103.626 5.85157C103.626 8.02566 101.864 9.78811 99.69 9.78811C97.5159 9.78811 95.7534 8.02566 95.7534 5.85157C95.7534 3.67749 97.5159 1.91504 99.69 1.91504C101.864 1.91504 103.626 3.67749 103.626 5.85157Z" fill="#FFD796"/>
<path d="M125.969 5.85157C125.969 8.02566 124.207 9.78811 122.032 9.78811C119.858 9.78811 118.096 8.02566 118.096 5.85157C118.096 3.67749 119.858 1.91504 122.032 1.91504C124.207 1.91504 125.969 3.67749 125.969 5.85157Z" fill="#FFD796"/>
<path d="M147.035 5.85157C147.035 8.02566 145.272 9.78811 143.098 9.78811C140.924 9.78811 139.162 8.02566 139.162 5.85157C139.162 3.67749 140.924 1.91504 143.098 1.91504C145.272 1.91504 147.035 3.67749 147.035 5.85157Z" fill="#FFD796"/>
<path d="M169.377 5.85157C169.377 8.02566 167.615 9.78811 165.441 9.78811C163.267 9.78811 161.504 8.02566 161.504 5.85157C161.504 3.67749 163.267 1.91504 165.441 1.91504C167.615 1.91504 169.377 3.67749 169.377 5.85157Z" fill="#FFD796"/>
<path d="M191.933 5.85157C191.933 8.02566 190.17 9.78811 187.996 9.78811C185.822 9.78811 184.06 8.02566 184.06 5.85157C184.06 3.67749 185.822 1.91504 187.996 1.91504C190.17 1.91504 191.933 3.67749 191.933 5.85157Z" fill="#FFD796"/>
<path d="M215.126 5.85157C215.126 8.02566 213.364 9.78811 211.19 9.78811C209.016 9.78811 207.253 8.02566 207.253 5.85157C207.253 3.67749 209.016 1.91504 211.19 1.91504C213.364 1.91504 215.126 3.67749 215.126 5.85157Z" fill="#FFD796"/>
<path d="M37.6631 6.48976C37.6631 8.66384 35.9007 10.4263 33.7266 10.4263C31.5525 10.4263 29.79 8.66384 29.79 6.48976C29.79 4.31567 31.5525 2.55322 33.7266 2.55322C35.9007 2.55322 37.6631 4.31567 37.6631 6.48976Z" fill="#FFD796"/>
<path d="M37.6631 105.01C37.6631 107.184 35.9007 108.946 33.7266 108.946C31.5525 108.946 29.79 107.184 29.79 105.01C29.79 102.836 31.5525 101.073 33.7266 101.073C35.9007 101.073 37.6631 102.836 37.6631 105.01Z" fill="#FFD796"/>
<path d="M60.2183 97.1367C60.2183 99.3108 58.4558 101.073 56.2817 101.073C54.1077 101.073 52.3452 99.3108 52.3452 97.1367C52.3452 94.9626 54.1077 93.2002 56.2817 93.2002C58.4558 93.2002 60.2183 94.9626 60.2183 97.1367Z" fill="#FFD796"/>
<path d="M81.2842 90.0084C81.2842 92.1237 79.5218 93.8385 77.3477 93.8385C75.1736 93.8385 73.4111 92.1237 73.4111 90.0084C73.4111 87.893 75.1736 86.1782 77.3477 86.1782C79.5218 86.1782 81.2842 87.893 81.2842 90.0084Z" fill="#FFD796"/>
<path d="M103.626 82.4546C103.626 84.6287 101.864 86.3911 99.69 86.3911C97.5159 86.3911 95.7534 84.6287 95.7534 82.4546C95.7534 80.2805 97.5159 78.5181 99.69 78.5181C101.864 78.5181 103.626 80.2805 103.626 82.4546Z" fill="#FFD796"/>
<path d="M125.969 75.0068C125.969 77.1809 124.207 78.9434 122.032 78.9434C119.858 78.9434 118.096 77.1809 118.096 75.0068C118.096 72.8328 119.858 71.0703 122.032 71.0703C124.207 71.0703 125.969 72.8328 125.969 75.0068Z" fill="#FFD796"/>
<path d="M147.035 67.5596C147.035 69.7337 145.272 71.4961 143.098 71.4961C140.924 71.4961 139.162 69.7337 139.162 67.5596C139.162 65.3855 140.924 63.623 143.098 63.623C145.272 63.623 147.035 65.3855 147.035 67.5596Z" fill="#FFD796"/>
<path d="M169.377 60.0053C169.377 62.2382 167.615 64.0483 165.441 64.0483C163.267 64.0483 161.504 62.2382 161.504 60.0053C161.504 57.7725 163.267 55.9624 165.441 55.9624C167.615 55.9624 169.377 57.7725 169.377 60.0053Z" fill="#FFD796"/>
<path d="M191.933 52.0259C191.933 54.2 190.17 55.9624 187.996 55.9624C185.822 55.9624 184.06 54.2 184.06 52.0259C184.06 49.8518 185.822 48.0894 187.996 48.0894C190.17 48.0894 191.933 49.8518 191.933 52.0259Z" fill="#FFD796"/>
<path d="M215.126 45.4297C215.126 47.6038 213.364 49.3662 211.19 49.3662C209.016 49.3662 207.253 47.6038 207.253 45.4297C207.253 43.2556 209.016 41.4932 211.19 41.4932C213.364 41.4932 215.126 43.2556 215.126 45.4297Z" fill="#FFD796"/>
</svg>
